<svg version="1.1" preserveAspectRatio="none" xmlns="http://www.w3.org/2000/svg" width="500" height="500" viewBox="0 0 500 500"><rect width="100%" height="100%" fill="#101F37" fill-opacity="1"/><svg viewBox="75.7692 210.4671 393.9521 267.4477" width="333" height="226.06830652762102" x="83.5px" y="136.9658px" xmlns="http://www.w3.org/2000/svg" xmlns:xlink="http://www.w3.org/1999/xlink" preserveAspectRatio="none"><defs></defs><style>.companyName {fill:#E9B0D6;fill-opacity:1;}.icon1 {fill:#929292;fill-opacity:1;}.icon2 {fill:#E9B0D6;fill-opacity:1;}.icon3 {fill:#E5E5E5;fill-opacity:1;}.icon3-str {stroke:#E5E5E5;stroke-opacity:1;}.text {fill:#E9B0D6;fill-opacity:1;}</style><g opacity="1" transform="rotate(0 253.3451 456.9148)">
<svg width="38.8004" height="21" x="253.3451" y="456.9148" version="1.1" preserveAspectRatio="none" viewBox="3.24 -26.48 48.919999999999995 26.48">
  <g transform="matrix(1 0 0 1 0 0)" class="text"><path id="id-6izo4zJp2" d="M22.36-23.60L6.24-23.60L6.24-14.40L20.60-14.40L20.60-11.48L6.24-11.48L6.24 0L3.24 0L3.24-26.48L22.36-26.48L22.36-23.60Z M50.80-19.48L50.80-19.48Q50.80-15.12 47.24-13.52L47.24-13.52Q50.52-12.44 51.72-9.56L51.72-9.56Q52.16-8.44 52.16-6.96L52.16-6.96Q52.16-2.16 47.08-0.56L47.08-0.56Q45.40 0 43.12 0L43.12 0L30.56 0L30.56-26.48L42.44-26.48Q46.72-26.48 48.96-24.16L48.96-24.16Q50.80-22.32 50.80-19.48ZM33.56-23.64L33.56-14.64L42.44-14.64Q46.12-14.64 47.36-17.16L47.36-17.16Q47.80-18.04 47.80-19.06Q47.80-20.08 47.52-20.86Q47.24-21.64 46.64-22.24L46.64-22.24Q45.32-23.64 42.76-23.64L42.76-23.64L33.56-23.64ZM33.56-2.84L43.44-2.84Q46.20-2.84 47.68-3.98Q49.16-5.12 49.16-7.20L49.16-7.20Q49.16-9.20 47.72-10.48L47.72-10.48Q46.12-11.92 43.12-11.92L43.12-11.92L33.56-11.92L33.56-2.84Z"/></g>
</svg>
</g><g opacity="1" transform="rotate(0 75.7692 384.9148)">
<svg width="393.9521" height="50" x="75.7692" y="384.9148" version="1.1" preserveAspectRatio="none" viewBox="4.3359 -32.4023 258.53130000000004 32.8125">
  <g transform="matrix(1 0 0 1 0 0)" class="companyName"><path id="id-D6z1nYkh8" d="M4.34 0L4.34-30.53L31.64-30.53L31.64-25.10L10.53-25.10L10.53-17.11L28.46-17.11L28.46-12.01L10.53-12.01L10.53 0L4.34 0Z M37.51-11.52L37.51-11.52Q37.51-14.00 38.51-16.17Q39.52-18.34 41.38-19.96Q43.25-21.58 45.90-22.52Q48.54-23.46 51.84-23.46L51.84-23.46Q55.14-23.46 57.79-22.52Q60.44-21.58 62.30-19.96Q64.17-18.34 65.17-16.17Q66.18-14.00 66.18-11.52L66.18-11.52Q66.18-9.04 65.17-6.88Q64.17-4.71 62.30-3.09Q60.44-1.46 57.79-0.53Q55.14 0.41 51.84 0.41L51.84 0.41Q48.54 0.41 45.90-0.53Q43.25-1.46 41.38-3.09Q39.52-4.71 38.51-6.88Q37.51-9.04 37.51-11.52ZM43.58-11.52L43.58-11.52Q43.58-10.14 44.14-8.90Q44.70-7.66 45.76-6.71Q46.82-5.76 48.36-5.21Q49.89-4.65 51.84-4.65L51.84-4.65Q53.80-4.65 55.33-5.21Q56.86-5.76 57.93-6.71Q58.99-7.66 59.55-8.90Q60.11-10.14 60.11-11.52L60.11-11.52Q60.11-12.91 59.55-14.16Q58.99-15.41 57.93-16.36Q56.86-17.30 55.33-17.86Q53.80-18.42 51.84-18.42L51.84-18.42Q49.89-18.42 48.36-17.86Q46.82-17.30 45.76-16.36Q44.70-15.41 44.14-14.16Q43.58-12.91 43.58-11.52Z M72.63-11.52L72.63-11.52Q72.63-14.00 73.64-16.17Q74.64-18.34 76.51-19.96Q78.38-21.58 81.02-22.52Q83.67-23.46 86.97-23.46L86.97-23.46Q90.27-23.46 92.92-22.52Q95.56-21.58 97.43-19.96Q99.29-18.34 100.30-16.17Q101.30-14.00 101.30-11.52L101.30-11.52Q101.30-9.04 100.30-6.88Q99.29-4.71 97.43-3.09Q95.56-1.46 92.92-0.53Q90.27 0.41 86.97 0.41L86.97 0.41Q83.67 0.41 81.02-0.53Q78.38-1.46 76.51-3.09Q74.64-4.71 73.64-6.88Q72.63-9.04 72.63-11.52ZM78.71-11.52L78.71-11.52Q78.71-10.14 79.26-8.90Q79.82-7.66 80.88-6.71Q81.95-5.76 83.48-5.21Q85.02-4.65 86.97-4.65L86.97-4.65Q88.92-4.65 90.46-5.21Q91.99-5.76 93.05-6.71Q94.12-7.66 94.67-8.90Q95.23-10.14 95.23-11.52L95.23-11.52Q95.23-12.91 94.67-14.16Q94.12-15.41 93.05-16.36Q91.99-17.30 90.46-17.86Q88.92-18.42 86.97-18.42L86.97-18.42Q85.02-18.42 83.48-17.86Q81.95-17.30 80.88-16.36Q79.82-15.41 79.26-14.16Q78.71-12.91 78.71-11.52Z M112.62 0L112.62-18.71L107.05-18.71L107.05-23.05L112.62-23.05L112.62-30.21L118.40-30.21L118.40-23.05L123.97-23.05L123.97-18.71L118.40-18.71L118.40 0L112.62 0Z M130.95 0L130.95-32.40L136.73-32.40L136.73-20.88Q137.49-21.41 138.53-21.88Q139.56-22.34 140.75-22.70Q141.95-23.05 143.21-23.25Q144.48-23.46 145.75-23.46L145.75-23.46Q148.68-23.46 151.13-22.60Q153.59-21.74 155.34-20.18Q157.10-18.61 158.09-16.44Q159.07-14.26 159.07-11.62L159.07-11.62Q159.07-8.87 158.04-6.65Q157.00-4.43 155.18-2.86Q153.35-1.29 150.84-0.44Q148.33 0.41 145.40 0.41L145.40 0.41Q144.15 0.41 142.93 0.25Q141.71 0.10 140.59-0.18Q139.46-0.45 138.48-0.83Q137.49-1.21 136.73-1.66L136.73-1.66L136.73 0L130.95 0ZM136.73-15.23L136.73-7.25Q137.61-6.54 138.59-6.05Q139.56-5.57 140.58-5.25Q141.59-4.94 142.63-4.79Q143.66-4.65 144.64-4.65L144.64-4.65Q146.63-4.65 148.19-5.19Q149.74-5.72 150.80-6.66Q151.87-7.60 152.43-8.87Q153-10.14 153-11.62L153-11.62Q153-13.01 152.44-14.24Q151.89-15.47 150.84-16.40Q149.80-17.32 148.32-17.86Q146.85-18.40 145.01-18.40L145.01-18.40Q143.84-18.40 142.67-18.17Q141.50-17.95 140.41-17.54Q139.33-17.13 138.38-16.54Q137.43-15.96 136.73-15.23L136.73-15.23Z M165.04-11.52L165.04-11.52Q165.04-14.00 166.04-16.17Q167.05-18.34 168.92-19.96Q170.78-21.58 173.43-22.52Q176.07-23.46 179.38-23.46L179.38-23.46Q182.68-23.46 185.32-22.52Q187.97-21.58 189.83-19.96Q191.70-18.34 192.71-16.17Q193.71-14.00 193.71-11.52L193.71-11.52Q193.71-9.04 192.71-6.88Q191.70-4.71 189.83-3.09Q187.97-1.46 185.32-0.53Q182.68 0.41 179.38 0.41L179.38 0.41Q176.07 0.41 173.43-0.53Q170.78-1.46 168.92-3.09Q167.05-4.71 166.04-6.88Q165.04-9.04 165.04-11.52ZM171.11-11.52L171.11-11.52Q171.11-10.14 171.67-8.90Q172.23-7.66 173.29-6.71Q174.36-5.76 175.89-5.21Q177.42-4.65 179.38-4.65L179.38-4.65Q181.33-4.65 182.86-5.21Q184.39-5.76 185.46-6.71Q186.52-7.66 187.08-8.90Q187.64-10.14 187.64-11.52L187.64-11.52Q187.64-12.91 187.08-14.16Q186.52-15.41 185.46-16.36Q184.39-17.30 182.86-17.86Q181.33-18.42 179.38-18.42L179.38-18.42Q177.42-18.42 175.89-17.86Q174.36-17.30 173.29-16.36Q172.23-15.41 171.67-14.16Q171.11-12.91 171.11-11.52Z M200.16-11.52L200.16-11.52Q200.16-14.00 201.17-16.17Q202.18-18.34 204.04-19.96Q205.91-21.58 208.55-22.52Q211.20-23.46 214.50-23.46L214.50-23.46Q217.80-23.46 220.45-22.52Q223.09-21.58 224.96-19.96Q226.82-18.34 227.83-16.17Q228.84-14.00 228.84-11.52L228.84-11.52Q228.84-9.04 227.83-6.88Q226.82-4.71 224.96-3.09Q223.09-1.46 220.45-0.53Q217.80 0.41 214.50 0.41L214.50 0.41Q211.20 0.41 208.55-0.53Q205.91-1.46 204.04-3.09Q202.18-4.71 201.17-6.88Q200.16-9.04 200.16-11.52ZM206.24-11.52L206.24-11.52Q206.24-10.14 206.79-8.90Q207.35-7.66 208.42-6.71Q209.48-5.76 211.01-5.21Q212.55-4.65 214.50-4.65L214.50-4.65Q216.45-4.65 217.99-5.21Q219.52-5.76 220.58-6.71Q221.65-7.66 222.21-8.90Q222.76-10.14 222.76-11.52L222.76-11.52Q222.76-12.91 222.21-14.16Q221.65-15.41 220.58-16.36Q219.52-17.30 217.99-17.86Q216.45-18.42 214.50-18.42L214.50-18.42Q212.55-18.42 211.01-17.86Q209.48-17.30 208.42-16.36Q207.35-15.41 206.79-14.16Q206.24-12.91 206.24-11.52Z M236.70 0L236.70-32.40L242.48-32.40L242.48-13.26L253.26-23.05L262.11-23.05L250.05-12.27L262.87 0L254.20 0L245.62-8.30L242.48-5.49L242.48 0L236.70 0Z"/></g>
</svg>
</g><g opacity="1" transform="rotate(0 193.9549 210.4671)">
<svg width="157.5807" height="144.4477" x="193.9549" y="210.4671" version="1.1" preserveAspectRatio="none" viewBox="1.434000015258789 5.199999809265137 97.20100402832031 89.10000610351562">
  <g transform="matrix(1 0 0 1 0 0)" class="icon1"><g><polygon points="66.234,21.399 66.234,29.5 90.533,29.5 90.533,86.2 17.634,86.2 17.634,78.1 9.533,78.1 9.533,94.3 98.635,94.3    98.635,21.399  "></polygon></g><path d="M50.035,13.3V5.2H9.534v8.1h-8.1V70h8.1v-8.101h8.1V70h8.1v-8.101h8.1V70h8.1v-8.101h8.101V70h8.1V13.3H50.035z   M25.734,37.6h-8.1v-8.1h-8.1v-8.1h16.2L25.734,37.6z M50.034,37.6h-8.101v-8.1h-8.099v-8.1h16.201L50.034,37.6z"></path></g>
</svg>
</g></svg></svg>